# xmcd CD database file
#
# Track frame offsets:
#	150
#	19635
#	39222
#	68922
#	91545
#	115382
#	138720
#	152957
#	166515
#	188500
#	203417
#	219500
#	238740
#	263052
#	279965
#
# Disc length: 4214 seconds
#
# Revision: 0
# Processed by: cddbd v1.5.1PL2 Copyright (c) Steve Scherf et al.
# Submitted via: CDex 1.51
#
DISCID=bd10740f
DTITLE=ARB - LOCUS 1998−2004 ARB LIVE BEST Disc 2
DYEAR=2004
DGENRE=DOMESTIC(J-POPS)
TTITLE0=LONESOME RYDER
TTITLE1=反逆のブルースを歌え
TTITLE2=RESPECT THE NIGHT
TTITLE3=威風堂々
TTITLE4=NEW RED SUN
TTITLE5=HARD−BOILED CITY
TTITLE6=野良犬
TTITLE7=共犯者よ
TTITLE8=BLACK&RED
TTITLE9=まぶしきコノ世
TTITLE10=独立記念日
TTITLE11=涙の河
TTITLE12=戦場のイマジン
TTITLE13=KAZA−BANA
TTITLE14=TOKYO OUTSIDER
EXTD=YEAR: 2004
EXTT0=
EXTT1=
EXTT2=
EXTT3=
EXTT4=
EXTT5=
EXTT6=
EXTT7=
EXTT8=
EXTT9=
EXTT10=
EXTT11=
EXTT12=
EXTT13=
EXTT14=
PLAYORDER=
